<svg width="155" height="145" viewBox="0 0 155 145" fill="none" xmlns="http://www.w3.org/2000/svg">
<g clip-path="url(#clip0_306_3)">
<path d="M115.944 108.882C102.634 113.021 95.2047 110.047 89.8406 109.306C86.3945 108.84 83.117 111.222 82.6323 114.683C82.158 118.081 84.7926 120.484 88.186 122.167C89.556 119.351 92.2644 117.266 95.5946 116.843C100.78 116.186 105.511 119.838 106.249 125.015C109.874 124.507 113.415 123.353 116.682 121.521C126.472 116.038 121.182 107.252 115.934 108.882H115.944Z" fill="#FFFFF2" stroke="#FFFFF2" stroke-width="2.161" stroke-miterlimit="10"/>
<path d="M24.8075 80.8202C24.7127 80.8413 24.5968 80.8519 24.4914 80.8731C24.2385 80.8943 23.9855 80.9048 23.7326 80.8943C23.6061 80.8943 23.4902 80.8731 23.3638 80.8731C23.153 80.8307 22.9422 80.7884 22.742 80.7355C22.5207 80.672 22.2994 80.5979 22.0781 80.5132C21.9727 80.4603 21.8778 80.4179 21.7724 80.365C21.5406 80.238 21.3298 80.1003 21.1191 79.9627C21.0348 79.8886 20.9504 79.8251 20.8767 79.7404C20.6975 79.5711 20.5289 79.3805 20.3603 79.19C20.3076 79.1159 20.2549 79.0524 20.2128 78.9783C20.0863 78.7877 19.9704 78.5866 19.865 78.3749C19.8228 78.2796 19.7807 78.195 19.728 78.0997C19.6542 77.8562 19.5699 77.6233 19.5067 77.3693C19.4751 77.2528 19.454 77.1258 19.4224 77.0094C19.4224 77.0411 19.4224 77.0623 19.4224 77.0941C19.4224 77.0623 19.4224 77.0306 19.4224 76.9988C19.4013 76.8718 19.4118 76.7447 19.4224 76.7553C19.4118 76.3637 19.3802 75.9826 19.4224 75.5803C19.4751 75.0511 19.1378 74.363 18.769 74.0031C18.3791 73.6114 17.7467 73.3256 17.1987 73.3468C15.892 73.4103 15.1121 74.3313 14.9751 75.5803C14.7011 78.2585 15.8287 81.1801 17.8311 82.9796C18.358 83.4559 18.9376 83.8582 19.5488 84.1969C19.5488 84.1969 19.5488 84.2075 19.5699 84.2181C19.6331 84.271 19.6858 84.3451 19.7385 84.3981C19.8334 84.5357 19.9177 84.6733 19.9809 84.8215C20.0231 84.9485 20.0547 85.0755 20.0758 85.2025C20.0758 85.3613 20.0758 85.5095 20.0758 85.6683C20.0547 85.7848 20.0231 85.8906 19.9809 86.007C19.9388 86.0917 19.8966 86.187 19.8439 86.2717C19.5488 86.7586 19.4751 87.4467 19.6226 87.9865C19.7596 88.5052 20.1601 89.0663 20.6448 89.3203C21.7303 89.9025 23.0265 89.5744 23.6799 88.5158C24.2806 87.5525 24.5335 86.4305 24.5125 85.2978C25.0078 85.2661 25.5031 85.2131 25.9984 85.1073C27.1365 84.8638 27.9058 83.4665 27.5475 82.3656C27.1576 81.1589 26.03 80.5449 24.8181 80.8096L24.8075 80.8202Z" fill="#FFFFF2" stroke="#FFFFF2" stroke-width="2.161" stroke-miterlimit="10"/>
<path d="M19.4119 77.0094C19.4119 77.0094 19.4119 77.0094 19.4119 77.02C19.4119 76.8401 19.4119 76.766 19.4119 76.7554C19.4119 76.8401 19.4119 76.9141 19.4119 76.9988V77.0094Z" fill="#FFFFF2" stroke="#FFFFF2" stroke-width="2.161" stroke-miterlimit="10"/>
<path d="M147.728 41.0188H143.502C138.56 17.7519 114.869 0.719818 87.4905 1.05855C60.4803 1.40787 37.8647 18.0906 32.8274 41.0188H30.3087C26.8837 41.0188 24.091 43.8239 24.091 47.2748V56.4947C19.317 55.4362 14.0583 56.3465 10.0115 59.0353C4.34184 62.8037 1.14868 69.5255 1.05384 76.279C0.95899 83.2231 4.32077 89.9131 9.34762 94.5602C12.193 97.1854 15.5126 99.1331 19.0746 100.456C14.7539 102.859 11.1497 106.437 13.2574 110.724C16.0079 114.98 20.4657 113.085 21.6882 113.826C20.94 114.927 19.7386 117.065 19.2643 118.335C18.1999 121.214 18.358 124.57 19.8018 127.28C21.3615 130.201 24.4914 131.938 27.79 131.556C28.8122 131.44 29.7817 131.154 30.6986 130.763C30.5827 132.181 30.6459 133.61 31.0147 135.06C31.9105 138.649 34.6927 141.602 38.4022 142.237C44.7148 143.317 50.2685 139.189 53.9465 134.15C64.0107 140.332 76.3724 143.952 89.5771 143.952C120.929 143.952 147.444 123.363 149.952 97.0689C150.036 96.148 150.1 95.2165 150.131 94.2003V65.8947C152.376 64.9525 153.946 62.719 153.946 60.1362V47.2748C153.946 43.8239 151.153 41.0188 147.728 41.0188ZM145.168 96.6032C142.891 120.442 118.474 139.125 89.5665 139.125C62.9674 139.125 40.1621 123.459 34.9351 102.182C36.5369 101.07 36.1575 97.9899 33.7653 98.1169C27.0101 98.4768 20.1285 97.0901 14.5431 93.0994C10.0748 89.9131 6.76569 85.0226 5.74346 79.6029C4.76338 74.4054 6.35469 68.594 10.0221 64.7832C13.6684 60.9936 19.2854 59.5857 24.2912 61.1735C30.0136 62.9942 33.4281 69.2608 32.2161 75.104C31.6365 77.9092 35.9151 79.1053 36.4948 76.2896C37.1798 72.9552 36.8425 69.4937 35.6201 66.3922H145.305V94.1367C145.284 94.9624 145.231 95.7987 145.146 96.6137L145.168 96.6032Z" fill="#FFFFF2" stroke="#FFFFF2" stroke-width="2.161" stroke-miterlimit="10"/>
<path d="M133.786 100.372C135.883 97.3759 137.232 92.6865 137.232 87.3937C137.232 78.3432 133.27 70.9968 128.38 70.9968C125.176 70.9968 122.373 74.1513 120.813 78.8724L124.048 81.2012C124.712 81.6776 125.018 82.4291 124.87 83.1595C124.712 83.8899 124.101 84.4933 123.29 84.7368L119.57 85.8271C119.538 86.3458 119.527 86.8645 119.527 87.3937C119.527 92.5065 120.792 97.0583 122.773 100.065C121.625 100.509 120.518 101.102 119.496 101.854C118.811 102.362 118.463 103.23 118.927 104.024C119.327 104.701 120.392 105.103 121.087 104.595C125.366 101.451 131.267 101.462 135.346 104.976C135.999 105.537 136.948 105.611 137.58 104.976C138.149 104.405 138.233 103.293 137.58 102.732C136.421 101.737 135.135 100.954 133.786 100.372Z" fill="#FFFFF2" stroke="#FFFFF2" stroke-width="2.161" stroke-miterlimit="10"/>
<path d="M88.5865 104.987C89.1556 104.415 89.2399 103.304 88.5865 102.743C87.4273 101.748 86.1416 100.964 84.7926 100.382C86.8898 97.3865 88.2387 92.6971 88.2387 87.4044C88.2387 78.3538 84.2763 71.0074 79.3864 71.0074C76.1827 71.0074 73.3795 74.1619 71.8198 78.883L75.0551 81.2119C75.719 81.6882 76.0246 82.4398 75.8771 83.1702C75.719 83.9006 75.1078 84.5039 74.2963 84.7474L70.5762 85.8377C70.5446 86.3564 70.5341 86.8751 70.5341 87.4044C70.5341 92.5172 71.7987 97.0689 73.7799 100.075C72.6312 100.52 71.5247 101.113 70.5025 101.864C69.8175 102.372 69.4697 103.24 69.9334 104.034C70.3338 104.712 71.3982 105.114 72.0938 104.606C76.3724 101.462 82.2739 101.472 86.3523 104.987C87.0057 105.548 87.9542 105.622 88.5865 104.987Z" fill="#FFFFF2" stroke="#FFFFF2" stroke-width="2.161" stroke-miterlimit="10"/>
<path d="M13.5766 62.2231L23.8176 58.7942L41.3737 57.8145L146.71 60.2637V72.9996L143.784 92.5933L141.345 108.758L121.351 129.821C114.199 132.434 99.5035 137.659 97.943 137.659C95.9923 137.659 75.998 138.638 71.609 137.659C68.0978 136.875 62.6684 134.067 59.4173 133.25C50.1517 123.617 29.2795 104.937 27.719 103.37C26.1584 101.802 18.1282 96.3487 13.5766 94.5527L4.79865 85.2457V75.4488L7.72465 66.1418L13.5766 62.2231Z" fill="#FFFFF2" stroke="#FFFFF2" stroke-width="5"/>
</g>
<g clip-path="url(#clip1_306_3)">
<path d="M114.02 106.86C101.39 110.77 94.34 107.96 89.25 107.26C85.98 106.82 82.87 109.07 82.41 112.34C81.96 115.55 84.46 117.82 87.68 119.41C88.98 116.75 91.55 114.78 94.71 114.38C99.63 113.76 104.12 117.21 104.82 122.1C108.26 121.62 111.62 120.53 114.72 118.8C124.01 113.62 118.99 105.32 114.01 106.86H114.02Z" fill="#1D201F"/>
<path d="M89 139.98C60.26 139.98 35.76 121.99 32.02 98.13L36.52 97.42C39.91 119.08 62.48 135.42 89 135.42C115.52 135.42 139.6 117.78 141.76 95.25C141.83 94.48 141.88 93.69 141.91 92.91V92.73V61.55H146.47V92.99C146.44 93.94 146.38 94.83 146.3 95.7C143.92 120.53 118.75 139.99 89.01 139.99L89 139.98Z" fill="#1D201F"/>
<path d="M36.05 96.69C29.64 97.03 23.11 95.72 17.81 91.95C13.57 88.94 10.43 84.32 9.46003 79.2C8.49003 74.08 10.04 68.8 13.52 65.2C17 61.6 22.31 60.29 27.06 61.79C32.49 63.51 35.73 69.43 34.58 74.95C34.03 77.6 38.09 78.73 38.64 76.07C39.97 69.67 37.3 62.76 31.66 59.29C26.02 55.82 18.78 56.29 13.5 59.78C8.22003 63.27 5.09003 69.68 5.00003 76.06C4.91003 82.62 8.10003 88.94 12.87 93.33C19.11 99.06 27.72 101.34 36.05 100.9C38.75 100.76 38.76 96.54 36.05 96.69Z" fill="#1D201F"/>
<path d="M18.21 75.41C17.95 77.94 19.02 80.7 20.92 82.4C23.04 84.3 25.9 85.02 28.67 84.42C29.75 84.19 30.48 82.87 30.14 81.83C29.77 80.69 28.7 80.11 27.55 80.36C27.44 80.38 27.29 80.38 27.19 80.43C27.53 80.39 27.61 80.38 27.45 80.4C27.39 80.4 27.33 80.41 27.27 80.42C27.03 80.44 26.78 80.45 26.54 80.44C26.42 80.44 26.3 80.42 26.17 80.42C25.77 80.4 26.67 80.52 26.25 80.43C26.03 80.39 25.81 80.35 25.59 80.29C25.35 80.23 25.13 80.14 24.89 80.06C24.65 79.97 25.33 80.27 25 80.1C24.89 80.04 24.78 79.99 24.67 79.94C24.45 79.82 24.25 79.69 24.05 79.56C23.68 79.32 24.42 79.88 24.09 79.59C24 79.51 23.91 79.43 23.82 79.35C23.64 79.19 23.49 79.01 23.32 78.83C23.07 78.56 23.54 79.14 23.39 78.93C23.32 78.83 23.25 78.74 23.18 78.64C23.06 78.46 22.95 78.27 22.85 78.07C22.79 77.96 22.75 77.85 22.69 77.75C22.51 77.37 22.84 78.18 22.72 77.81C22.65 77.58 22.57 77.36 22.51 77.12C22.48 77 22.45 76.89 22.43 76.77C22.39 76.56 22.45 76.31 22.43 76.86C22.44 76.38 22.37 75.91 22.43 75.43C22.49 74.95 22.16 74.28 21.81 73.94C21.44 73.57 20.84 73.3 20.32 73.32C19.08 73.38 18.33 74.25 18.21 75.43V75.41Z" fill="#1D201F"/>
<path d="M22.56 83.56C22.7 83.69 22.82 83.82 22.94 83.97L22.61 83.54C22.79 83.77 22.93 84.02 23.05 84.29L22.84 83.79C22.97 84.1 23.06 84.42 23.11 84.75L23.03 84.19C23.07 84.52 23.08 84.85 23.03 85.18L23.11 84.62C23.07 84.93 22.99 85.23 22.87 85.52L23.08 85.02C23.01 85.19 22.92 85.36 22.82 85.52C22.54 85.98 22.47 86.63 22.61 87.14C22.75 87.65 23.12 88.16 23.58 88.4C24.61 88.95 25.84 88.64 26.46 87.64C27.82 85.46 27.42 82.34 25.53 80.59C25.12 80.21 24.6 79.97 24.04 79.97C23.52 79.97 22.91 80.2 22.55 80.59C22.19 80.98 21.91 81.52 21.93 82.08C21.95 82.64 22.13 83.19 22.55 83.57L22.56 83.56Z" fill="#1D201F"/>
<path d="M56.88 128.13C53.57 133.94 47.5 139.56 40.45 138.36C36.93 137.76 34.29 134.97 33.44 131.58C33.09 130.21 33.03 128.86 33.14 127.52C32.27 127.89 31.35 128.16 30.38 128.27C27.25 128.63 24.28 126.99 22.8 124.23C21.43 121.67 21.28 118.5 22.29 115.78C22.74 114.58 23.88 112.56 24.59 111.52C23.43 110.81 19.2 112.61 16.59 108.59C13.6 102.52 22.8 97.93 28.18 96.39C30.51 97.37 32.97 98.03 35.48 98.4L36.93 100.4C37.12 113.05 44.55 126.87 56.89 128.13H56.88Z" fill="#1D201F"/>
<path d="M134.22 86.57C134.22 92.31 132.53 97.32 130.01 99.99C128.71 99.47 127.32 99.17 125.92 99.11C124.4 99.06 122.88 99.29 121.44 99.79C119.03 97.07 117.42 92.17 117.42 86.57C117.42 86.07 117.43 85.58 117.46 85.09L120.99 84.06C121.76 83.83 122.34 83.26 122.49 82.57C122.63 81.88 122.34 81.17 121.71 80.72L118.64 78.52C120.12 74.06 122.78 71.08 125.82 71.08C130.46 71.08 134.22 78.02 134.22 86.57Z" fill="#1D201F"/>
<path d="M34.15 64.37H144.18C146.14 64.37 147.74 62.77 147.74 60.81V48.66C147.74 46.7 146.14 45.09 144.18 45.09H138.23C134.71 23.47 113.05 7.01002 87.05 7.34002C61.58 7.67002 40.69 24.01 37.08 45.09H32.76C30.8 45.09 29.2 46.7 29.2 48.66V60.36" fill="#1D201F"/>
<path d="M144.18 66.71H34.15V62.03H144.18C144.85 62.03 145.4 61.48 145.4 60.81V48.66C145.4 47.99 144.84 47.43 144.18 47.43H136.24L135.92 45.47C132.55 24.76 111.58 9.38999 87.08 9.67999C62.94 9.98999 42.88 25.05 39.38 45.49L39.05 47.43H32.76C32.1 47.43 31.54 47.99 31.54 48.66V60.36H26.86V48.66C26.86 45.4 29.51 42.75 32.76 42.75H35.15C39.93 21.09 61.39 5.33999 87.02 4.99999C112.99 4.67999 135.47 20.77 140.17 42.75H144.18C147.43 42.75 150.08 45.4 150.08 48.66V60.81C150.08 64.06 147.43 66.71 144.18 66.71Z" fill="#1D201F"/>
<path d="M134.55 101.06C129.72 96.93 122.58 96.43 117.38 100.24C116.73 100.72 116.4 101.54 116.84 102.29C117.22 102.93 118.23 103.31 118.89 102.83C122.95 99.86 128.55 99.87 132.42 103.19C133.04 103.72 133.94 103.79 134.54 103.19C135.08 102.65 135.16 101.6 134.54 101.07L134.55 101.06Z" fill="#1D201F"/>
<path d="M87.73 86.57C87.73 92.31 86.04 97.32 83.52 99.99C82.22 99.47 80.83 99.17 79.43 99.11C77.91 99.06 76.39 99.29 74.95 99.79C72.54 97.07 70.93 92.17 70.93 86.57C70.93 86.07 70.94 85.58 70.97 85.09L74.5 84.06C75.27 83.83 75.85 83.26 76 82.57C76.14 81.88 75.85 81.17 75.22 80.72L72.15 78.52C73.63 74.06 76.29 71.08 79.33 71.08C83.97 71.08 87.73 78.02 87.73 86.57Z" fill="#1D201F"/>
<path d="M88.06 101.06C83.23 96.93 76.09 96.43 70.89 100.24C70.24 100.72 69.91 101.54 70.35 102.29C70.73 102.93 71.74 103.31 72.4 102.83C76.46 99.86 82.06 99.87 85.93 103.19C86.55 103.72 87.45 103.79 88.05 103.19C88.59 102.65 88.67 101.6 88.05 101.07L88.06 101.06Z" fill="#1D201F"/>
</g>
<defs>
<clipPath id="clip0_306_3">
<rect width="155" height="145" fill="white"/>
</clipPath>
<clipPath id="clip1_306_3">
<rect width="145.08" height="134.98" fill="white" transform="translate(5 5)"/>
</clipPath>
</defs>
</svg>
